<svg width="615" height="461" viewBox="0 0 615 461" fill="none" xmlns="http://www.w3.org/2000/svg">
<g filter="url(#filter0_d_462_2424)">
<rect x="3" y="3" width="607" height="453" rx="24" fill="white"/>
</g>
<path d="M3 29C3 15.7452 13.7452 5 27 5H586C599.255 5 610 15.7452 610 29V96H3V29Z" fill="#000745"/>
<path d="M242.87 25.328V56.688C242.87 61.04 241.612 64.432 239.094 66.864C236.577 69.2533 233.206 70.448 228.982 70.448C224.716 70.448 221.26 69.2107 218.614 66.736C216.012 64.2613 214.71 60.8053 214.71 56.368H223.67C223.713 58.288 224.161 59.7813 225.014 60.848C225.91 61.9147 227.19 62.448 228.854 62.448C230.476 62.448 231.713 61.936 232.566 60.912C233.42 59.888 233.846 58.48 233.846 56.688V25.328H242.87ZM262.154 25.328V52.976C262.154 56.0053 262.944 58.3307 264.522 59.952C266.101 61.5307 268.32 62.32 271.178 62.32C274.08 62.32 276.32 61.5307 277.898 59.952C279.477 58.3307 280.266 56.0053 280.266 52.976V25.328H289.29V52.912C289.29 56.7093 288.458 59.9307 286.794 62.576C285.173 65.1787 282.976 67.1413 280.202 68.464C277.472 69.7867 274.421 70.448 271.05 70.448C267.722 70.448 264.693 69.7867 261.962 68.464C259.274 67.1413 257.141 65.1787 255.562 62.576C253.984 59.9307 253.194 56.7093 253.194 52.912V25.328H262.154ZM306.907 62.896H321.627V70H297.947V25.328H306.907V62.896ZM362.842 25.328L347.738 54.448V70H338.778V54.448L323.61 25.328H333.722L343.322 45.744L352.858 25.328H362.842Z" fill="white"/>
<path d="M380.952 68.28C382.488 66.952 383.696 65.864 384.576 65.016C385.472 64.152 386.216 63.256 386.808 62.328C387.4 61.4 387.696 60.472 387.696 59.544C387.696 58.584 387.464 57.832 387 57.288C386.552 56.744 385.84 56.472 384.864 56.472C383.92 56.472 383.184 56.776 382.656 57.384C382.144 57.976 381.872 58.776 381.84 59.784H379.2C379.248 57.96 379.792 56.568 380.832 55.608C381.888 54.632 383.224 54.144 384.84 54.144C386.584 54.144 387.944 54.624 388.92 55.584C389.912 56.544 390.408 57.824 390.408 59.424C390.408 60.576 390.112 61.688 389.52 62.76C388.944 63.816 388.248 64.768 387.432 65.616C386.632 66.448 385.608 67.416 384.36 68.52L383.28 69.48H390.888V71.76H379.224V69.768L380.952 68.28ZM393.292 63.024C393.292 60.256 393.756 58.096 394.684 56.544C395.628 54.976 397.244 54.192 399.532 54.192C401.82 54.192 403.428 54.976 404.356 56.544C405.3 58.096 405.772 60.256 405.772 63.024C405.772 65.824 405.3 68.016 404.356 69.6C403.428 71.168 401.82 71.952 399.532 71.952C397.244 71.952 395.628 71.168 394.684 69.6C393.756 68.016 393.292 65.824 393.292 63.024ZM403.084 63.024C403.084 61.728 402.996 60.632 402.82 59.736C402.66 58.84 402.324 58.112 401.812 57.552C401.3 56.976 400.54 56.688 399.532 56.688C398.524 56.688 397.764 56.976 397.252 57.552C396.74 58.112 396.396 58.84 396.22 59.736C396.06 60.632 395.98 61.728 395.98 63.024C395.98 64.368 396.06 65.496 396.22 66.408C396.38 67.32 396.716 68.056 397.228 68.616C397.756 69.176 398.524 69.456 399.532 69.456C400.54 69.456 401.3 69.176 401.812 68.616C402.34 68.056 402.684 67.32 402.844 66.408C403.004 65.496 403.084 64.368 403.084 63.024ZM410.179 68.28C411.715 66.952 412.923 65.864 413.803 65.016C414.699 64.152 415.443 63.256 416.035 62.328C416.627 61.4 416.923 60.472 416.923 59.544C416.923 58.584 416.691 57.832 416.227 57.288C415.779 56.744 415.067 56.472 414.091 56.472C413.147 56.472 412.411 56.776 411.883 57.384C411.371 57.976 411.099 58.776 411.067 59.784H408.427C408.475 57.96 409.019 56.568 410.059 55.608C411.115 54.632 412.451 54.144 414.067 54.144C415.811 54.144 417.171 54.624 418.147 55.584C419.139 56.544 419.635 57.824 419.635 59.424C419.635 60.576 419.339 61.688 418.747 62.76C418.171 63.816 417.475 64.768 416.659 65.616C415.859 66.448 414.835 67.416 413.587 68.52L412.507 69.48H420.115V71.76H408.451V69.768L410.179 68.28ZM422.47 58.824C422.566 57.336 423.134 56.176 424.174 55.344C425.23 54.512 426.574 54.096 428.206 54.096C429.326 54.096 430.294 54.296 431.11 54.696C431.926 55.096 432.542 55.64 432.958 56.328C433.374 57.016 433.582 57.792 433.582 58.656C433.582 59.648 433.318 60.496 432.79 61.2C432.262 61.904 431.63 62.376 430.894 62.616V62.712C431.838 63 432.574 63.528 433.102 64.296C433.63 65.048 433.894 66.016 433.894 67.2C433.894 68.144 433.678 68.984 433.246 69.72C432.814 70.456 432.174 71.04 431.326 71.472C430.478 71.888 429.462 72.096 428.278 72.096C426.55 72.096 425.126 71.656 424.006 70.776C422.902 69.88 422.31 68.6 422.23 66.936H424.87C424.934 67.784 425.262 68.48 425.854 69.024C426.446 69.552 427.246 69.816 428.254 69.816C429.23 69.816 429.982 69.552 430.51 69.024C431.038 68.48 431.302 67.784 431.302 66.936C431.302 65.816 430.942 65.024 430.222 64.56C429.518 64.08 428.43 63.84 426.958 63.84H426.334V61.584H426.982C428.278 61.568 429.262 61.352 429.934 60.936C430.622 60.52 430.966 59.864 430.966 58.968C430.966 58.2 430.718 57.592 430.222 57.144C429.726 56.68 429.022 56.448 428.11 56.448C427.214 56.448 426.518 56.68 426.022 57.144C425.526 57.592 425.23 58.152 425.134 58.824H422.47Z" fill="white" fill-opacity="0.96"/>
<path d="M64.6275 140.168C63.4595 140.168 62.4035 139.968 61.4595 139.568C60.5315 139.168 59.7955 138.592 59.2515 137.84C58.7075 137.088 58.4275 136.2 58.4115 135.176H62.0115C62.0595 135.864 62.2995 136.408 62.7315 136.808C63.1795 137.208 63.7875 137.408 64.5555 137.408C65.3395 137.408 65.9555 137.224 66.4035 136.856C66.8515 136.472 67.0755 135.976 67.0755 135.368C67.0755 134.872 66.9235 134.464 66.6195 134.144C66.3155 133.824 65.9315 133.576 65.4675 133.4C65.0195 133.208 64.3955 133 63.5955 132.776C62.5075 132.456 61.6195 132.144 60.9315 131.84C60.2595 131.52 59.6755 131.048 59.1795 130.424C58.6995 129.784 58.4595 128.936 58.4595 127.88C58.4595 126.888 58.7075 126.024 59.2035 125.288C59.6995 124.552 60.3955 123.992 61.2915 123.608C62.1875 123.208 63.2115 123.008 64.3635 123.008C66.0915 123.008 67.4915 123.432 68.5635 124.28C69.6515 125.112 70.2515 126.28 70.3635 127.784H66.6675C66.6355 127.208 66.3875 126.736 65.9235 126.368C65.4755 125.984 64.8755 125.792 64.1235 125.792C63.4675 125.792 62.9395 125.96 62.5395 126.296C62.1555 126.632 61.9635 127.12 61.9635 127.76C61.9635 128.208 62.1075 128.584 62.3955 128.888C62.6995 129.176 63.0675 129.416 63.4995 129.608C63.9475 129.784 64.5715 129.992 65.3715 130.232C66.4595 130.552 67.3475 130.872 68.0355 131.192C68.7235 131.512 69.3155 131.992 69.8115 132.632C70.3075 133.272 70.5555 134.112 70.5555 135.152C70.5555 136.048 70.3235 136.88 69.8595 137.648C69.3955 138.416 68.7155 139.032 67.8195 139.496C66.9235 139.944 65.8595 140.168 64.6275 140.168Z" fill="#FF0000"/>
<path d="M151.627 123.248V140H148.267V129.104L143.779 140H141.235L136.723 129.104V140H133.363V123.248H137.179L142.507 135.704L147.835 123.248H151.627Z" fill="black"/>
<path d="M226.63 123.248V125.96H222.166V140H218.806V125.96H214.342V123.248H226.63Z" fill="black"/>
<path d="M310.255 123.248L305.575 140H301.615L298.471 128.072L295.183 140L291.247 140.024L286.735 123.248H290.335L293.287 136.256L296.695 123.248H300.439L303.655 136.184L306.631 123.248H310.255Z" fill="black"/>
<path d="M382.63 123.248V125.96H378.166V140H374.806V125.96H370.342V123.248H382.63Z" fill="black"/>
<path d="M460.137 123.248V125.96H453.153V130.256H458.505V132.92H453.153V140H449.793V123.248H460.137Z" fill="black"/>
<path d="M532.628 140.168C531.46 140.168 530.404 139.968 529.46 139.568C528.532 139.168 527.796 138.592 527.252 137.84C526.708 137.088 526.428 136.2 526.412 135.176H530.012C530.06 135.864 530.3 136.408 530.732 136.808C531.18 137.208 531.788 137.408 532.556 137.408C533.34 137.408 533.956 137.224 534.404 136.856C534.852 136.472 535.076 135.976 535.076 135.368C535.076 134.872 534.924 134.464 534.62 134.144C534.316 133.824 533.932 133.576 533.468 133.4C533.02 133.208 532.396 133 531.596 132.776C530.508 132.456 529.62 132.144 528.932 131.84C528.26 131.52 527.676 131.048 527.18 130.424C526.7 129.784 526.46 128.936 526.46 127.88C526.46 126.888 526.708 126.024 527.204 125.288C527.7 124.552 528.396 123.992 529.292 123.608C530.188 123.208 531.212 123.008 532.364 123.008C534.092 123.008 535.492 123.432 536.564 124.28C537.652 125.112 538.252 126.28 538.364 127.784H534.668C534.636 127.208 534.388 126.736 533.924 126.368C533.476 125.984 532.876 125.792 532.124 125.792C531.468 125.792 530.94 125.96 530.54 126.296C530.156 126.632 529.964 127.12 529.964 127.76C529.964 128.208 530.108 128.584 530.396 128.888C530.7 129.176 531.068 129.416 531.5 129.608C531.948 129.784 532.572 129.992 533.372 130.232C534.46 130.552 535.348 130.872 536.036 131.192C536.724 131.512 537.316 131.992 537.812 132.632C538.308 133.272 538.556 134.112 538.556 135.152C538.556 136.048 538.324 136.88 537.859 137.648C537.396 138.416 536.716 139.032 535.82 139.496C534.924 139.944 533.86 140.168 532.628 140.168Z" fill="black"/>
<rect x="21.5" y="166" width="554" height="2" fill="#BDBDBD"/>
<circle cx="457" cy="205" r="21" fill="#000745"/>
<path d="M219.385 198V195.504H224.377V213H221.617V198H219.385Z" fill="#404040"/>
<path d="M296.526 209.28C298.062 207.952 299.27 206.864 300.15 206.016C301.046 205.152 301.79 204.256 302.382 203.328C302.974 202.4 303.27 201.472 303.27 200.544C303.27 199.584 303.038 198.832 302.574 198.288C302.126 197.744 301.414 197.472 300.438 197.472C299.494 197.472 298.758 197.776 298.23 198.384C297.718 198.976 297.446 199.776 297.414 200.784H294.774C294.822 198.96 295.366 197.568 296.406 196.608C297.462 195.632 298.798 195.144 300.414 195.144C302.158 195.144 303.518 195.624 304.494 196.584C305.486 197.544 305.982 198.824 305.982 200.424C305.982 201.576 305.686 202.688 305.094 203.76C304.518 204.816 303.822 205.768 303.006 206.616C302.206 207.448 301.182 208.416 299.934 209.52L298.854 210.48H306.462V212.76H294.798V210.768L296.526 209.28Z" fill="#404040"/>
<path d="M372.767 199.824C372.863 198.336 373.431 197.176 374.471 196.344C375.527 195.512 376.871 195.096 378.503 195.096C379.623 195.096 380.591 195.296 381.407 195.696C382.223 196.096 382.839 196.64 383.255 197.328C383.671 198.016 383.879 198.792 383.879 199.656C383.879 200.648 383.615 201.496 383.087 202.2C382.559 202.904 381.927 203.376 381.191 203.616V203.712C382.135 204 382.871 204.528 383.399 205.296C383.927 206.048 384.191 207.016 384.191 208.2C384.191 209.144 383.975 209.984 383.543 210.72C383.111 211.456 382.471 212.04 381.623 212.472C380.775 212.888 379.759 213.096 378.575 213.096C376.847 213.096 375.423 212.656 374.303 211.776C373.199 210.88 372.607 209.6 372.527 207.936H375.167C375.231 208.784 375.559 209.48 376.151 210.024C376.743 210.552 377.543 210.816 378.551 210.816C379.527 210.816 380.279 210.552 380.807 210.024C381.335 209.48 381.599 208.784 381.599 207.936C381.599 206.816 381.239 206.024 380.519 205.56C379.815 205.08 378.727 204.84 377.255 204.84H376.631V202.584H377.279C378.575 202.568 379.559 202.352 380.231 201.936C380.919 201.52 381.263 200.864 381.263 199.968C381.263 199.2 381.015 198.592 380.519 198.144C380.023 197.68 379.319 197.448 378.407 197.448C377.511 197.448 376.815 197.68 376.319 198.144C375.823 198.592 375.527 199.152 375.431 199.824H372.767Z" fill="#404040"/>
<path d="M449.834 209.352V207.288L457.898 195.72H461.21V206.976H463.442V209.352H461.21V213H458.522V209.352H449.834ZM458.642 198.504L452.978 206.976H458.642V198.504Z" fill="white"/>
<path d="M539.556 197.856H531.516V202.632C531.852 202.184 532.348 201.808 533.004 201.504C533.676 201.2 534.388 201.048 535.14 201.048C536.484 201.048 537.572 201.336 538.404 201.912C539.252 202.488 539.852 203.216 540.204 204.096C540.572 204.976 540.756 205.904 540.756 206.88C540.756 208.064 540.524 209.12 540.06 210.048C539.612 210.96 538.932 211.68 538.02 212.208C537.124 212.736 536.02 213 534.708 213C532.964 213 531.564 212.568 530.508 211.704C529.452 210.84 528.82 209.696 528.612 208.272H531.276C531.452 209.024 531.844 209.624 532.452 210.072C533.06 210.504 533.82 210.72 534.732 210.72C535.868 210.72 536.716 210.376 537.276 209.688C537.852 209 538.14 208.088 538.14 206.952C538.14 205.8 537.852 204.92 537.276 204.312C536.7 203.688 535.852 203.376 534.732 203.376C533.948 203.376 533.284 203.576 532.74 203.976C532.212 204.36 531.828 204.888 531.588 205.56H528.996V195.456H539.556V197.856Z" fill="#404040"/>
<path d="M69.6488 251.56C69.4728 250.824 69.1528 250.272 68.6888 249.904C68.2248 249.536 67.5768 249.352 66.7448 249.352C65.4808 249.352 64.5368 249.84 63.9128 250.816C63.2888 251.776 62.9608 253.376 62.9288 255.616C63.3448 254.912 63.9528 254.368 64.7528 253.984C65.5528 253.6 66.4168 253.408 67.3448 253.408C68.4008 253.408 69.3288 253.64 70.1288 254.104C70.9448 254.552 71.5768 255.208 72.0248 256.072C72.4888 256.936 72.7208 257.968 72.7208 259.168C72.7208 260.288 72.4968 261.288 72.0488 262.168C71.6168 263.048 70.9688 263.744 70.1048 264.256C69.2408 264.752 68.2008 265 66.9848 265C65.3368 265 64.0408 264.64 63.0968 263.92C62.1688 263.184 61.5128 262.152 61.1288 260.824C60.7608 259.496 60.5768 257.84 60.5768 255.856C60.5768 250 62.6408 247.072 66.7688 247.072C68.3688 247.072 69.6248 247.504 70.5368 248.368C71.4648 249.232 72.0088 250.296 72.1688 251.56H69.6488ZM66.7448 255.712C65.7688 255.712 64.9368 256.008 64.2488 256.6C63.5768 257.176 63.2408 258.016 63.2408 259.12C63.2408 260.224 63.5528 261.104 64.1768 261.76C64.8168 262.4 65.7048 262.72 66.8408 262.72C67.8488 262.72 68.6408 262.408 69.2168 261.784C69.8088 261.16 70.1048 260.328 70.1048 259.288C70.1048 258.2 69.8168 257.336 69.2408 256.696C68.6808 256.04 67.8488 255.712 66.7448 255.712Z" fill="#FF0000"/>
<path d="M150.313 249.616L143.641 265H140.881L147.625 249.904H138.745V247.576H150.313V249.616Z" fill="#404040"/>
<path d="M219.24 255.856C217.576 255.024 216.744 253.712 216.744 251.92C216.744 251.056 216.96 250.264 217.392 249.544C217.824 248.824 218.472 248.256 219.336 247.84C220.2 247.408 221.256 247.192 222.504 247.192C223.736 247.192 224.784 247.408 225.648 247.84C226.528 248.256 227.184 248.824 227.616 249.544C228.048 250.264 228.264 251.056 228.264 251.92C228.264 252.816 228.032 253.608 227.568 254.296C227.12 254.968 226.52 255.488 225.768 255.856C226.68 256.192 227.4 256.744 227.928 257.512C228.456 258.264 228.72 259.152 228.72 260.176C228.72 261.216 228.456 262.136 227.928 262.936C227.4 263.736 226.664 264.352 225.72 264.784C224.776 265.216 223.704 265.432 222.504 265.432C221.304 265.432 220.232 265.216 219.288 264.784C218.36 264.352 217.632 263.736 217.104 262.936C216.576 262.136 216.312 261.216 216.312 260.176C216.312 259.136 216.576 258.24 217.104 257.488C217.632 256.736 218.344 256.192 219.24 255.856ZM225.648 252.256C225.648 251.36 225.368 250.672 224.808 250.192C224.248 249.712 223.48 249.472 222.504 249.472C221.544 249.472 220.784 249.712 220.224 250.192C219.664 250.672 219.384 251.368 219.384 252.28C219.384 253.08 219.672 253.736 220.248 254.248C220.84 254.744 221.592 254.992 222.504 254.992C223.416 254.992 224.168 254.736 224.76 254.224C225.352 253.712 225.648 253.056 225.648 252.256ZM222.504 257.056C221.448 257.056 220.584 257.32 219.912 257.848C219.256 258.36 218.928 259.104 218.928 260.08C218.928 260.992 219.248 261.736 219.888 262.312C220.528 262.872 221.4 263.152 222.504 263.152C223.592 263.152 224.448 262.864 225.072 262.288C225.712 261.712 226.032 260.976 226.032 260.08C226.032 259.12 225.704 258.376 225.048 257.848C224.408 257.32 223.56 257.056 222.504 257.056Z" fill="#404040"/>
<path d="M297.731 260.248C297.891 261.048 298.235 261.656 298.763 262.072C299.291 262.488 300.003 262.696 300.899 262.696C302.035 262.696 302.867 262.248 303.395 261.352C303.923 260.456 304.187 258.928 304.187 256.768C303.803 257.312 303.259 257.736 302.555 258.04C301.867 258.328 301.115 258.472 300.299 258.472C299.259 258.472 298.315 258.264 297.467 257.848C296.619 257.416 295.947 256.784 295.451 255.952C294.971 255.104 294.731 254.08 294.731 252.88C294.731 251.12 295.243 249.72 296.267 248.68C297.307 247.624 298.731 247.096 300.539 247.096C302.715 247.096 304.259 247.824 305.171 249.28C306.099 250.72 306.563 252.936 306.563 255.928C306.563 257.992 306.387 259.68 306.035 260.992C305.699 262.304 305.107 263.296 304.259 263.968C303.411 264.64 302.235 264.976 300.731 264.976C299.019 264.976 297.699 264.528 296.771 263.632C295.843 262.736 295.323 261.608 295.211 260.248H297.731ZM300.779 256.168C301.739 256.168 302.491 255.872 303.035 255.28C303.595 254.672 303.875 253.872 303.875 252.88C303.875 251.776 303.579 250.92 302.987 250.312C302.411 249.688 301.619 249.376 300.611 249.376C299.603 249.376 298.803 249.696 298.211 250.336C297.635 250.96 297.347 251.784 297.347 252.808C297.347 253.784 297.627 254.592 298.187 255.232C298.763 255.856 299.627 256.168 300.779 256.168Z" fill="#404040"/>
<path d="M367.697 250V247.504H372.689V265H369.929V250H367.697ZM376.448 256.024C376.448 253.256 376.912 251.096 377.84 249.544C378.784 247.976 380.4 247.192 382.688 247.192C384.976 247.192 386.584 247.976 387.512 249.544C388.456 251.096 388.928 253.256 388.928 256.024C388.928 258.824 388.456 261.016 387.512 262.6C386.584 264.168 384.976 264.952 382.688 264.952C380.4 264.952 378.784 264.168 377.84 262.6C376.912 261.016 376.448 258.824 376.448 256.024ZM386.24 256.024C386.24 254.728 386.152 253.632 385.976 252.736C385.816 251.84 385.48 251.112 384.968 250.552C384.456 249.976 383.696 249.688 382.688 249.688C381.68 249.688 380.92 249.976 380.408 250.552C379.896 251.112 379.552 251.84 379.376 252.736C379.216 253.632 379.136 254.728 379.136 256.024C379.136 257.368 379.216 258.496 379.376 259.408C379.536 260.32 379.872 261.056 380.384 261.616C380.912 262.176 381.68 262.456 382.688 262.456C383.696 262.456 384.456 262.176 384.968 261.616C385.496 261.056 385.84 260.32 386 259.408C386.16 258.496 386.24 257.368 386.24 256.024Z" fill="#404040"/>
<path d="M449.189 250V247.504H454.181V265H451.421V250H449.189ZM457.58 250V247.504H462.572V265H459.812V250H457.58Z" fill="#404040"/>
<path d="M520.58 250V247.504H525.572V265H522.812V250H520.58ZM530.843 261.28C532.379 259.952 533.587 258.864 534.467 258.016C535.363 257.152 536.107 256.256 536.699 255.328C537.291 254.4 537.587 253.472 537.587 252.544C537.587 251.584 537.355 250.832 536.891 250.288C536.443 249.744 535.731 249.472 534.755 249.472C533.811 249.472 533.075 249.776 532.547 250.384C532.035 250.976 531.763 251.776 531.731 252.784H529.091C529.139 250.96 529.683 249.568 530.723 248.608C531.779 247.632 533.115 247.144 534.731 247.144C536.475 247.144 537.835 247.624 538.811 248.584C539.803 249.544 540.299 250.824 540.299 252.424C540.299 253.576 540.003 254.688 539.411 255.76C538.835 256.816 538.139 257.768 537.323 258.616C536.523 259.448 535.499 260.416 534.251 261.52L533.171 262.48H540.779V264.76H529.115V262.768L530.843 261.28Z" fill="#404040"/>
<path d="M56.2597 302V299.504H61.2517V317H58.4917V302H56.2597ZM64.9623 303.824C65.0583 302.336 65.6263 301.176 66.6663 300.344C67.7223 299.512 69.0663 299.096 70.6983 299.096C71.8183 299.096 72.7863 299.296 73.6023 299.696C74.4183 300.096 75.0343 300.64 75.4503 301.328C75.8663 302.016 76.0743 302.792 76.0743 303.656C76.0743 304.648 75.8103 305.496 75.2823 306.2C74.7543 306.904 74.1223 307.376 73.3863 307.616V307.712C74.3303 308 75.0663 308.528 75.5943 309.296C76.1223 310.048 76.3863 311.016 76.3863 312.2C76.3863 313.144 76.1703 313.984 75.7383 314.72C75.3063 315.456 74.6663 316.04 73.8183 316.472C72.9703 316.888 71.9543 317.096 70.7703 317.096C69.0423 317.096 67.6183 316.656 66.4983 315.776C65.3943 314.88 64.8023 313.6 64.7223 311.936H67.3623C67.4263 312.784 67.7543 313.48 68.3463 314.024C68.9383 314.552 69.7383 314.816 70.7463 314.816C71.7223 314.816 72.4743 314.552 73.0023 314.024C73.5303 313.48 73.7943 312.784 73.7943 311.936C73.7943 310.816 73.4343 310.024 72.7143 309.56C72.0103 309.08 70.9223 308.84 69.4503 308.84H68.8263V306.584H69.4743C70.7703 306.568 71.7543 306.352 72.4263 305.936C73.1143 305.52 73.4583 304.864 73.4583 303.968C73.4583 303.2 73.2103 302.592 72.7143 302.144C72.2183 301.68 71.5143 301.448 70.6023 301.448C69.7063 301.448 69.0103 301.68 68.5143 302.144C68.0183 302.592 67.7223 303.152 67.6263 303.824H64.9623Z" fill="#FF0000"/>
<path d="M133.615 302V299.504H138.607V317H135.847V302H133.615ZM142.03 313.352V311.288L150.094 299.72H153.406V310.976H155.638V313.352H153.406V317H150.718V313.352H142.03ZM150.838 302.504L145.174 310.976H150.838V302.504Z" fill="#404040"/>
<path d="M211.721 302V299.504H216.713V317H213.953V302H211.721ZM231.751 301.856H223.711V306.632C224.047 306.184 224.543 305.808 225.199 305.504C225.871 305.2 226.583 305.048 227.335 305.048C228.679 305.048 229.767 305.336 230.599 305.912C231.447 306.488 232.047 307.216 232.399 308.096C232.767 308.976 232.951 309.904 232.951 310.88C232.951 312.064 232.719 313.12 232.255 314.048C231.807 314.96 231.127 315.68 230.215 316.208C229.319 316.736 228.215 317 226.903 317C225.159 317 223.759 316.568 222.703 315.704C221.647 314.84 221.015 313.696 220.807 312.272H223.471C223.647 313.024 224.039 313.624 224.647 314.072C225.255 314.504 226.015 314.72 226.927 314.72C228.063 314.72 228.911 314.376 229.471 313.688C230.047 313 230.335 312.088 230.335 310.952C230.335 309.8 230.047 308.92 229.471 308.312C228.895 307.688 228.047 307.376 226.927 307.376C226.143 307.376 225.479 307.576 224.935 307.976C224.407 308.36 224.023 308.888 223.783 309.56H221.191V299.456H231.751V301.856Z" fill="#404040"/>
<path d="M289.685 302V299.504H294.677V317H291.917V302H289.685ZM307.844 303.56C307.668 302.824 307.348 302.272 306.884 301.904C306.42 301.536 305.772 301.352 304.94 301.352C303.676 301.352 302.732 301.84 302.108 302.816C301.484 303.776 301.156 305.376 301.124 307.616C301.54 306.912 302.148 306.368 302.948 305.984C303.748 305.6 304.612 305.408 305.54 305.408C306.596 305.408 307.524 305.64 308.324 306.104C309.14 306.552 309.772 307.208 310.22 308.072C310.684 308.936 310.916 309.968 310.916 311.168C310.916 312.288 310.692 313.288 310.244 314.168C309.812 315.048 309.164 315.744 308.3 316.256C307.436 316.752 306.396 317 305.18 317C303.532 317 302.236 316.64 301.292 315.92C300.364 315.184 299.708 314.152 299.324 312.824C298.956 311.496 298.772 309.84 298.772 307.856C298.772 302 300.836 299.072 304.964 299.072C306.564 299.072 307.82 299.504 308.732 300.368C309.66 301.232 310.204 302.296 310.364 303.56H307.844ZM304.94 307.712C303.964 307.712 303.132 308.008 302.444 308.6C301.772 309.176 301.436 310.016 301.436 311.12C301.436 312.224 301.748 313.104 302.372 313.76C303.012 314.4 303.9 314.72 305.036 314.72C306.044 314.72 306.836 314.408 307.412 313.784C308.004 313.16 308.3 312.328 308.3 311.288C308.3 310.2 308.012 309.336 307.436 308.696C306.876 308.04 306.044 307.712 304.94 307.712Z" fill="#404040"/>
<path d="M368.67 302V299.504H373.662V317H370.902V302H368.67ZM388.508 301.616L381.836 317H379.076L385.82 301.904H376.94V299.576H388.508V301.616Z" fill="#404040"/>
<path d="M445.732 302V299.504H450.724V317H447.964V302H445.732ZM457.435 307.856C455.771 307.024 454.939 305.712 454.939 303.92C454.939 303.056 455.155 302.264 455.587 301.544C456.019 300.824 456.667 300.256 457.531 299.84C458.395 299.408 459.451 299.192 460.699 299.192C461.931 299.192 462.979 299.408 463.843 299.84C464.723 300.256 465.379 300.824 465.811 301.544C466.243 302.264 466.459 303.056 466.459 303.92C466.459 304.816 466.227 305.608 465.763 306.296C465.315 306.968 464.715 307.488 463.963 307.856C464.875 308.192 465.595 308.744 466.123 309.512C466.651 310.264 466.915 311.152 466.915 312.176C466.915 313.216 466.651 314.136 466.123 314.936C465.595 315.736 464.859 316.352 463.915 316.784C462.971 317.216 461.899 317.432 460.699 317.432C459.499 317.432 458.427 317.216 457.483 316.784C456.555 316.352 455.827 315.736 455.299 314.936C454.771 314.136 454.507 313.216 454.507 312.176C454.507 311.136 454.771 310.24 455.299 309.488C455.827 308.736 456.539 308.192 457.435 307.856ZM463.843 304.256C463.843 303.36 463.563 302.672 463.003 302.192C462.443 301.712 461.675 301.472 460.699 301.472C459.739 301.472 458.979 301.712 458.419 302.192C457.859 302.672 457.579 303.368 457.579 304.28C457.579 305.08 457.867 305.736 458.443 306.248C459.035 306.744 459.787 306.992 460.699 306.992C461.611 306.992 462.363 306.736 462.955 306.224C463.547 305.712 463.843 305.056 463.843 304.256ZM460.699 309.056C459.643 309.056 458.779 309.32 458.107 309.848C457.451 310.36 457.123 311.104 457.123 312.08C457.123 312.992 457.443 313.736 458.083 314.312C458.723 314.872 459.595 315.152 460.699 315.152C461.787 315.152 462.643 314.864 463.267 314.288C463.907 313.712 464.227 312.976 464.227 312.08C464.227 311.12 463.899 310.376 463.243 309.848C462.603 309.32 461.755 309.056 460.699 309.056Z" fill="#404040"/>
<path d="M523.768 302V299.504H528.76V317H526V302H523.768ZM535.926 312.248C536.086 313.048 536.43 313.656 536.958 314.072C537.486 314.488 538.198 314.696 539.094 314.696C540.23 314.696 541.062 314.248 541.59 313.352C542.118 312.456 542.382 310.928 542.382 308.768C541.998 309.312 541.454 309.736 540.75 310.04C540.062 310.328 539.31 310.472 538.494 310.472C537.454 310.472 536.51 310.264 535.662 309.848C534.814 309.416 534.142 308.784 533.646 307.952C533.166 307.104 532.926 306.08 532.926 304.88C532.926 303.12 533.438 301.72 534.462 300.68C535.502 299.624 536.926 299.096 538.734 299.096C540.91 299.096 542.454 299.824 543.366 301.28C544.294 302.72 544.758 304.936 544.758 307.928C544.758 309.992 544.582 311.68 544.23 312.992C543.894 314.304 543.302 315.296 542.454 315.968C541.606 316.64 540.43 316.976 538.926 316.976C537.214 316.976 535.894 316.528 534.966 315.632C534.038 314.736 533.518 313.608 533.406 312.248H535.926ZM538.974 308.168C539.934 308.168 540.686 307.872 541.23 307.28C541.79 306.672 542.07 305.872 542.07 304.88C542.07 303.776 541.774 302.92 541.182 302.312C540.606 301.688 539.814 301.376 538.806 301.376C537.798 301.376 536.998 301.696 536.406 302.336C535.83 302.96 535.542 303.784 535.542 304.808C535.542 305.784 535.822 306.592 536.382 307.232C536.958 307.856 537.822 308.168 538.974 308.168Z" fill="#404040"/>
<path d="M54.8387 365.28C56.3747 363.952 57.5827 362.864 58.4627 362.016C59.3587 361.152 60.1027 360.256 60.6947 359.328C61.2867 358.4 61.5827 357.472 61.5827 356.544C61.5827 355.584 61.3507 354.832 60.8867 354.288C60.4387 353.744 59.7267 353.472 58.7507 353.472C57.8067 353.472 57.0707 353.776 56.5427 354.384C56.0307 354.976 55.7587 355.776 55.7267 356.784H53.0867C53.1347 354.96 53.6787 353.568 54.7187 352.608C55.7747 351.632 57.1107 351.144 58.7267 351.144C60.4707 351.144 61.8307 351.624 62.8067 352.584C63.7987 353.544 64.2947 354.824 64.2947 356.424C64.2947 357.576 63.9987 358.688 63.4067 359.76C62.8307 360.816 62.1347 361.768 61.3187 362.616C60.5187 363.448 59.4947 364.416 58.2467 365.52L57.1667 366.48H64.7747V368.76H53.1107V366.768L54.8387 365.28ZM67.1783 360.024C67.1783 357.256 67.6423 355.096 68.5703 353.544C69.5143 351.976 71.1303 351.192 73.4183 351.192C75.7063 351.192 77.3143 351.976 78.2423 353.544C79.1863 355.096 79.6583 357.256 79.6583 360.024C79.6583 362.824 79.1863 365.016 78.2423 366.6C77.3143 368.168 75.7063 368.952 73.4183 368.952C71.1303 368.952 69.5143 368.168 68.5703 366.6C67.6423 365.016 67.1783 362.824 67.1783 360.024ZM76.9703 360.024C76.9703 358.728 76.8823 357.632 76.7063 356.736C76.5463 355.84 76.2103 355.112 75.6983 354.552C75.1863 353.976 74.4263 353.688 73.4183 353.688C72.4103 353.688 71.6503 353.976 71.1383 354.552C70.6263 355.112 70.2823 355.84 70.1063 356.736C69.9463 357.632 69.8663 358.728 69.8663 360.024C69.8663 361.368 69.9463 362.496 70.1063 363.408C70.2663 364.32 70.6023 365.056 71.1143 365.616C71.6423 366.176 72.4103 366.456 73.4183 366.456C74.4263 366.456 75.1863 366.176 75.6983 365.616C76.2263 365.056 76.5703 364.32 76.7303 363.408C76.8903 362.496 76.9703 361.368 76.9703 360.024Z" fill="#FF0000"/>
<path d="M136.331 365.28C137.867 363.952 139.075 362.864 139.955 362.016C140.851 361.152 141.595 360.256 142.187 359.328C142.779 358.4 143.075 357.472 143.075 356.544C143.075 355.584 142.843 354.832 142.379 354.288C141.931 353.744 141.219 353.472 140.243 353.472C139.299 353.472 138.563 353.776 138.035 354.384C137.523 354.976 137.251 355.776 137.219 356.784H134.579C134.627 354.96 135.171 353.568 136.211 352.608C137.267 351.632 138.603 351.144 140.219 351.144C141.963 351.144 143.323 351.624 144.299 352.584C145.291 353.544 145.787 354.824 145.787 356.424C145.787 357.576 145.491 358.688 144.899 359.76C144.323 360.816 143.627 361.768 142.811 362.616C142.011 363.448 140.987 364.416 139.739 365.52L138.659 366.48H146.267V368.76H134.603V366.768L136.331 365.28ZM148.31 354V351.504H153.302V369H150.542V354H148.31Z" fill="#404040"/>
<path d="M211.6 365.28C213.136 363.952 214.344 362.864 215.224 362.016C216.12 361.152 216.864 360.256 217.456 359.328C218.048 358.4 218.344 357.472 218.344 356.544C218.344 355.584 218.112 354.832 217.648 354.288C217.2 353.744 216.488 353.472 215.512 353.472C214.568 353.472 213.832 353.776 213.304 354.384C212.792 354.976 212.52 355.776 212.488 356.784H209.848C209.896 354.96 210.44 353.568 211.48 352.608C212.536 351.632 213.872 351.144 215.488 351.144C217.232 351.144 218.592 351.624 219.568 352.584C220.56 353.544 221.056 354.824 221.056 356.424C221.056 357.576 220.76 358.688 220.168 359.76C219.592 360.816 218.896 361.768 218.08 362.616C217.28 363.448 216.256 364.416 215.008 365.52L213.928 366.48H221.536V368.76H209.872V366.768L211.6 365.28ZM225.452 365.28C226.988 363.952 228.196 362.864 229.076 362.016C229.972 361.152 230.716 360.256 231.308 359.328C231.9 358.4 232.196 357.472 232.196 356.544C232.196 355.584 231.964 354.832 231.5 354.288C231.052 353.744 230.34 353.472 229.364 353.472C228.42 353.472 227.684 353.776 227.156 354.384C226.644 354.976 226.372 355.776 226.34 356.784H223.7C223.748 354.96 224.292 353.568 225.332 352.608C226.388 351.632 227.724 351.144 229.34 351.144C231.084 351.144 232.444 351.624 233.42 352.584C234.412 353.544 234.908 354.824 234.908 356.424C234.908 357.576 234.612 358.688 234.02 359.76C233.444 360.816 232.748 361.768 231.932 362.616C231.132 363.448 230.108 364.416 228.86 365.52L227.78 366.48H235.388V368.76H223.724V366.768L225.452 365.28Z" fill="#404040"/>
<path d="M289.401 365.28C290.937 363.952 292.145 362.864 293.025 362.016C293.921 361.152 294.665 360.256 295.257 359.328C295.849 358.4 296.145 357.472 296.145 356.544C296.145 355.584 295.913 354.832 295.449 354.288C295.001 353.744 294.289 353.472 293.313 353.472C292.369 353.472 291.633 353.776 291.105 354.384C290.593 354.976 290.321 355.776 290.289 356.784H287.649C287.697 354.96 288.241 353.568 289.281 352.608C290.337 351.632 291.673 351.144 293.289 351.144C295.033 351.144 296.393 351.624 297.369 352.584C298.361 353.544 298.857 354.824 298.857 356.424C298.857 357.576 298.561 358.688 297.969 359.76C297.393 360.816 296.697 361.768 295.881 362.616C295.081 363.448 294.057 364.416 292.809 365.52L291.729 366.48H299.337V368.76H287.673V366.768L289.401 365.28ZM301.693 355.824C301.789 354.336 302.357 353.176 303.397 352.344C304.453 351.512 305.797 351.096 307.429 351.096C308.549 351.096 309.517 351.296 310.333 351.696C311.149 352.096 311.765 352.64 312.181 353.328C312.597 354.016 312.805 354.792 312.805 355.656C312.805 356.648 312.541 357.496 312.013 358.2C311.485 358.904 310.853 359.376 310.117 359.616V359.712C311.061 360 311.797 360.528 312.325 361.296C312.853 362.048 313.117 363.016 313.117 364.2C313.117 365.144 312.901 365.984 312.469 366.72C312.037 367.456 311.397 368.04 310.549 368.472C309.701 368.888 308.685 369.096 307.501 369.096C305.773 369.096 304.349 368.656 303.229 367.776C302.125 366.88 301.533 365.6 301.453 363.936H304.093C304.157 364.784 304.485 365.48 305.077 366.024C305.669 366.552 306.469 366.816 307.477 366.816C308.453 366.816 309.205 366.552 309.733 366.024C310.261 365.48 310.525 364.784 310.525 363.936C310.525 362.816 310.165 362.024 309.445 361.56C308.741 361.08 307.653 360.84 306.181 360.84H305.557V358.584H306.205C307.501 358.568 308.485 358.352 309.157 357.936C309.845 357.52 310.189 356.864 310.189 355.968C310.189 355.2 309.941 354.592 309.445 354.144C308.949 353.68 308.245 353.448 307.333 353.448C306.437 353.448 305.741 353.68 305.245 354.144C304.749 354.592 304.453 355.152 304.357 355.824H301.693Z" fill="#404040"/>
<path d="M366.757 365.28C368.293 363.952 369.501 362.864 370.381 362.016C371.277 361.152 372.021 360.256 372.613 359.328C373.205 358.4 373.501 357.472 373.501 356.544C373.501 355.584 373.269 354.832 372.805 354.288C372.357 353.744 371.645 353.472 370.669 353.472C369.725 353.472 368.989 353.776 368.461 354.384C367.949 354.976 367.677 355.776 367.645 356.784H365.005C365.053 354.96 365.597 353.568 366.637 352.608C367.693 351.632 369.029 351.144 370.645 351.144C372.389 351.144 373.749 351.624 374.725 352.584C375.717 353.544 376.213 354.824 376.213 356.424C376.213 357.576 375.917 358.688 375.325 359.76C374.749 360.816 374.053 361.768 373.237 362.616C372.437 363.448 371.413 364.416 370.165 365.52L369.085 366.48H376.693V368.76H365.029V366.768L366.757 365.28ZM378.76 365.352V363.288L386.824 351.72H390.136V362.976H392.368V365.352H390.136V369H387.448V365.352H378.76ZM387.568 354.504L381.904 362.976H387.568V354.504Z" fill="#404040"/>
<path d="M444.862 365.28C446.398 363.952 447.606 362.864 448.486 362.016C449.382 361.152 450.126 360.256 450.718 359.328C451.31 358.4 451.606 357.472 451.606 356.544C451.606 355.584 451.374 354.832 450.91 354.288C450.462 353.744 449.75 353.472 448.774 353.472C447.83 353.472 447.094 353.776 446.566 354.384C446.054 354.976 445.782 355.776 445.75 356.784H443.11C443.158 354.96 443.702 353.568 444.742 352.608C445.798 351.632 447.134 351.144 448.75 351.144C450.494 351.144 451.854 351.624 452.83 352.584C453.822 353.544 454.318 354.824 454.318 356.424C454.318 357.576 454.022 358.688 453.43 359.76C452.854 360.816 452.158 361.768 451.342 362.616C450.542 363.448 449.518 364.416 448.27 365.52L447.19 366.48H454.798V368.76H443.134V366.768L444.862 365.28ZM468.482 353.856H460.442V358.632C460.778 358.184 461.274 357.808 461.93 357.504C462.602 357.2 463.314 357.048 464.066 357.048C465.41 357.048 466.498 357.336 467.33 357.912C468.178 358.488 468.778 359.216 469.13 360.096C469.498 360.976 469.682 361.904 469.682 362.88C469.682 364.064 469.45 365.12 468.986 366.048C468.538 366.96 467.858 367.68 466.946 368.208C466.05 368.736 464.946 369 463.634 369C461.89 369 460.49 368.568 459.434 367.704C458.378 366.84 457.746 365.696 457.538 364.272H460.202C460.378 365.024 460.77 365.624 461.378 366.072C461.986 366.504 462.746 366.72 463.658 366.72C464.794 366.72 465.642 366.376 466.202 365.688C466.778 365 467.066 364.088 467.066 362.952C467.066 361.8 466.778 360.92 466.202 360.312C465.626 359.688 464.778 359.376 463.658 359.376C462.874 359.376 462.21 359.576 461.666 359.976C461.138 360.36 460.754 360.888 460.514 361.56H457.922V351.456H468.482V353.856Z" fill="#404040"/>
<path d="M522.827 365.28C524.363 363.952 525.571 362.864 526.451 362.016C527.347 361.152 528.091 360.256 528.683 359.328C529.275 358.4 529.571 357.472 529.571 356.544C529.571 355.584 529.339 354.832 528.875 354.288C528.427 353.744 527.715 353.472 526.739 353.472C525.795 353.472 525.059 353.776 524.531 354.384C524.019 354.976 523.747 355.776 523.715 356.784H521.075C521.123 354.96 521.667 353.568 522.707 352.608C523.763 351.632 525.099 351.144 526.715 351.144C528.459 351.144 529.819 351.624 530.795 352.584C531.787 353.544 532.283 354.824 532.283 356.424C532.283 357.576 531.987 358.688 531.395 359.76C530.819 360.816 530.123 361.768 529.307 362.616C528.507 363.448 527.483 364.416 526.235 365.52L525.155 366.48H532.763V368.76H521.099V366.768L522.827 365.28ZM544.575 355.56C544.399 354.824 544.079 354.272 543.615 353.904C543.151 353.536 542.503 353.352 541.671 353.352C540.407 353.352 539.463 353.84 538.839 354.816C538.215 355.776 537.887 357.376 537.855 359.616C538.271 358.912 538.879 358.368 539.679 357.984C540.479 357.6 541.343 357.408 542.271 357.408C543.327 357.408 544.255 357.64 545.055 358.104C545.871 358.552 546.503 359.208 546.951 360.072C547.415 360.936 547.647 361.968 547.647 363.168C547.647 364.288 547.423 365.288 546.975 366.168C546.543 367.048 545.895 367.744 545.031 368.256C544.167 368.752 543.127 369 541.911 369C540.263 369 538.967 368.64 538.023 367.92C537.095 367.184 536.439 366.152 536.055 364.824C535.687 363.496 535.503 361.84 535.503 359.856C535.503 354 537.567 351.072 541.695 351.072C543.295 351.072 544.551 351.504 545.463 352.368C546.391 353.232 546.935 354.296 547.095 355.56H544.575ZM541.671 359.712C540.695 359.712 539.863 360.008 539.175 360.6C538.503 361.176 538.167 362.016 538.167 363.12C538.167 364.224 538.479 365.104 539.103 365.76C539.743 366.4 540.631 366.72 541.767 366.72C542.775 366.72 543.567 366.408 544.143 365.784C544.735 365.16 545.031 364.328 545.031 363.288C545.031 362.2 544.743 361.336 544.167 360.696C543.607 360.04 542.775 359.712 541.671 359.712Z" fill="#404040"/>
<path d="M55.8114 417.28C57.3474 415.952 58.5554 414.864 59.4354 414.016C60.3314 413.152 61.0754 412.256 61.6674 411.328C62.2594 410.4 62.5554 409.472 62.5554 408.544C62.5554 407.584 62.3234 406.832 61.8594 406.288C61.4114 405.744 60.6994 405.472 59.7234 405.472C58.7794 405.472 58.0434 405.776 57.5154 406.384C57.0034 406.976 56.7314 407.776 56.6994 408.784H54.0594C54.1074 406.96 54.6514 405.568 55.6914 404.608C56.7474 403.632 58.0834 403.144 59.6994 403.144C61.4434 403.144 62.8034 403.624 63.7794 404.584C64.7714 405.544 65.2674 406.824 65.2674 408.424C65.2674 409.576 64.9714 410.688 64.3794 411.76C63.8034 412.816 63.1074 413.768 62.2914 414.616C61.4914 415.448 60.4674 416.416 59.2194 417.52L58.1394 418.48H65.7474V420.76H54.0834V418.768L55.8114 417.28ZM79.2389 405.616L72.5669 421H69.8069L76.5509 405.904H67.6709V403.576H79.2389V405.616Z" fill="#FF0000"/>
<path d="M132.874 417.28C134.41 415.952 135.618 414.864 136.498 414.016C137.394 413.152 138.138 412.256 138.73 411.328C139.322 410.4 139.618 409.472 139.618 408.544C139.618 407.584 139.386 406.832 138.922 406.288C138.474 405.744 137.762 405.472 136.786 405.472C135.842 405.472 135.106 405.776 134.578 406.384C134.066 406.976 133.794 407.776 133.762 408.784H131.122C131.17 406.96 131.714 405.568 132.754 404.608C133.81 403.632 135.146 403.144 136.762 403.144C138.506 403.144 139.866 403.624 140.842 404.584C141.834 405.544 142.33 406.824 142.33 408.424C142.33 409.576 142.034 410.688 141.442 411.76C140.866 412.816 140.17 413.768 139.354 414.616C138.554 415.448 137.53 416.416 136.282 417.52L135.202 418.48H142.81V420.76H131.146V418.768L132.874 417.28ZM148.165 411.856C146.501 411.024 145.669 409.712 145.669 407.92C145.669 407.056 145.885 406.264 146.317 405.544C146.749 404.824 147.397 404.256 148.261 403.84C149.125 403.408 150.181 403.192 151.429 403.192C152.661 403.192 153.709 403.408 154.573 403.84C155.453 404.256 156.109 404.824 156.541 405.544C156.973 406.264 157.189 407.056 157.189 407.92C157.189 408.816 156.957 409.608 156.493 410.296C156.045 410.968 155.445 411.488 154.693 411.856C155.605 412.192 156.325 412.744 156.853 413.512C157.381 414.264 157.645 415.152 157.645 416.176C157.645 417.216 157.381 418.136 156.853 418.936C156.325 419.736 155.589 420.352 154.645 420.784C153.701 421.216 152.629 421.432 151.429 421.432C150.229 421.432 149.157 421.216 148.213 420.784C147.285 420.352 146.557 419.736 146.029 418.936C145.501 418.136 145.237 417.216 145.237 416.176C145.237 415.136 145.501 414.24 146.029 413.488C146.557 412.736 147.269 412.192 148.165 411.856ZM154.573 408.256C154.573 407.36 154.293 406.672 153.733 406.192C153.173 405.712 152.405 405.472 151.429 405.472C150.469 405.472 149.709 405.712 149.149 406.192C148.589 406.672 148.309 407.368 148.309 408.28C148.309 409.08 148.597 409.736 149.173 410.248C149.765 410.744 150.517 410.992 151.429 410.992C152.341 410.992 153.093 410.736 153.685 410.224C154.277 409.712 154.573 409.056 154.573 408.256ZM151.429 413.056C150.373 413.056 149.509 413.32 148.837 413.848C148.181 414.36 147.853 415.104 147.853 416.08C147.853 416.992 148.173 417.736 148.813 418.312C149.453 418.872 150.325 419.152 151.429 419.152C152.517 419.152 153.373 418.864 153.997 418.288C154.637 417.712 154.957 416.976 154.957 416.08C154.957 415.12 154.629 414.376 153.973 413.848C153.333 413.32 152.485 413.056 151.429 413.056Z" fill="#404040"/>
<path d="M210.909 417.28C212.445 415.952 213.653 414.864 214.533 414.016C215.429 413.152 216.173 412.256 216.765 411.328C217.357 410.4 217.653 409.472 217.653 408.544C217.653 407.584 217.421 406.832 216.957 406.288C216.509 405.744 215.797 405.472 214.821 405.472C213.877 405.472 213.141 405.776 212.613 406.384C212.101 406.976 211.829 407.776 211.797 408.784H209.157C209.205 406.96 209.749 405.568 210.789 404.608C211.845 403.632 213.181 403.144 214.797 403.144C216.541 403.144 217.901 403.624 218.877 404.584C219.869 405.544 220.365 406.824 220.365 408.424C220.365 409.576 220.069 410.688 219.477 411.76C218.901 412.816 218.205 413.768 217.389 414.616C216.589 415.448 215.565 416.416 214.317 417.52L213.237 418.48H220.845V420.76H209.181V418.768L210.909 417.28ZM226.657 416.248C226.817 417.048 227.161 417.656 227.689 418.072C228.217 418.488 228.929 418.696 229.825 418.696C230.961 418.696 231.793 418.248 232.321 417.352C232.849 416.456 233.113 414.928 233.113 412.768C232.729 413.312 232.185 413.736 231.481 414.04C230.793 414.328 230.041 414.472 229.225 414.472C228.185 414.472 227.241 414.264 226.393 413.848C225.545 413.416 224.873 412.784 224.377 411.952C223.897 411.104 223.657 410.08 223.657 408.88C223.657 407.12 224.169 405.72 225.193 404.68C226.233 403.624 227.657 403.096 229.465 403.096C231.641 403.096 233.185 403.824 234.097 405.28C235.025 406.72 235.489 408.936 235.489 411.928C235.489 413.992 235.313 415.68 234.961 416.992C234.625 418.304 234.033 419.296 233.185 419.968C232.337 420.64 231.161 420.976 229.657 420.976C227.945 420.976 226.625 420.528 225.697 419.632C224.769 418.736 224.249 417.608 224.137 416.248H226.657ZM229.705 412.168C230.665 412.168 231.417 411.872 231.961 411.28C232.521 410.672 232.801 409.872 232.801 408.88C232.801 407.776 232.505 406.92 231.913 406.312C231.337 405.688 230.545 405.376 229.537 405.376C228.529 405.376 227.729 405.696 227.137 406.336C226.561 406.96 226.273 407.784 226.273 408.808C226.273 409.784 226.553 410.592 227.113 411.232C227.689 411.856 228.553 412.168 229.705 412.168Z" fill="#404040"/>
<path d="M289.401 417.28C290.937 415.952 292.145 414.864 293.025 414.016C293.921 413.152 294.665 412.256 295.257 411.328C295.849 410.4 296.145 409.472 296.145 408.544C296.145 407.584 295.913 406.832 295.449 406.288C295.001 405.744 294.289 405.472 293.313 405.472C292.369 405.472 291.633 405.776 291.105 406.384C290.593 406.976 290.321 407.776 290.289 408.784H287.649C287.697 406.96 288.241 405.568 289.281 404.608C290.337 403.632 291.673 403.144 293.289 403.144C295.033 403.144 296.393 403.624 297.369 404.584C298.361 405.544 298.857 406.824 298.857 408.424C298.857 409.576 298.561 410.688 297.969 411.76C297.393 412.816 296.697 413.768 295.881 414.616C295.081 415.448 294.057 416.416 292.809 417.52L291.729 418.48H299.337V420.76H287.673V418.768L289.401 417.28ZM301.693 407.824C301.789 406.336 302.357 405.176 303.397 404.344C304.453 403.512 305.797 403.096 307.429 403.096C308.549 403.096 309.517 403.296 310.333 403.696C311.149 404.096 311.765 404.64 312.181 405.328C312.597 406.016 312.805 406.792 312.805 407.656C312.805 408.648 312.541 409.496 312.013 410.2C311.485 410.904 310.853 411.376 310.117 411.616V411.712C311.061 412 311.797 412.528 312.325 413.296C312.853 414.048 313.117 415.016 313.117 416.2C313.117 417.144 312.901 417.984 312.469 418.72C312.037 419.456 311.397 420.04 310.549 420.472C309.701 420.888 308.685 421.096 307.501 421.096C305.773 421.096 304.349 420.656 303.229 419.776C302.125 418.88 301.533 417.6 301.453 415.936H304.093C304.157 416.784 304.485 417.48 305.077 418.024C305.669 418.552 306.469 418.816 307.477 418.816C308.453 418.816 309.205 418.552 309.733 418.024C310.261 417.48 310.525 416.784 310.525 415.936C310.525 414.816 310.165 414.024 309.445 413.56C308.741 413.08 307.653 412.84 306.181 412.84H305.557V410.584H306.205C307.501 410.568 308.485 410.352 309.157 409.936C309.845 409.52 310.189 408.864 310.189 407.968C310.189 407.2 309.941 406.592 309.445 406.144C308.949 405.68 308.245 405.448 307.333 405.448C306.437 405.448 305.741 405.68 305.245 406.144C304.749 406.592 304.453 407.152 304.357 407.824H301.693Z" fill="#404040"/>
<path d="M365.08 407.824C365.176 406.336 365.744 405.176 366.784 404.344C367.84 403.512 369.184 403.096 370.816 403.096C371.936 403.096 372.904 403.296 373.72 403.696C374.536 404.096 375.152 404.64 375.568 405.328C375.984 406.016 376.192 406.792 376.192 407.656C376.192 408.648 375.928 409.496 375.4 410.2C374.872 410.904 374.24 411.376 373.504 411.616V411.712C374.448 412 375.184 412.528 375.712 413.296C376.24 414.048 376.504 415.016 376.504 416.2C376.504 417.144 376.288 417.984 375.856 418.72C375.424 419.456 374.784 420.04 373.936 420.472C373.088 420.888 372.072 421.096 370.888 421.096C369.16 421.096 367.736 420.656 366.616 419.776C365.512 418.88 364.92 417.6 364.84 415.936H367.48C367.544 416.784 367.872 417.48 368.464 418.024C369.056 418.552 369.856 418.816 370.864 418.816C371.84 418.816 372.592 418.552 373.12 418.024C373.648 417.48 373.912 416.784 373.912 415.936C373.912 414.816 373.552 414.024 372.832 413.56C372.128 413.08 371.04 412.84 369.568 412.84H368.944V410.584H369.592C370.888 410.568 371.872 410.352 372.544 409.936C373.232 409.52 373.576 408.864 373.576 407.968C373.576 407.2 373.328 406.592 372.832 406.144C372.336 405.68 371.632 405.448 370.72 405.448C369.824 405.448 369.128 405.68 368.632 406.144C368.136 406.592 367.84 407.152 367.744 407.824H365.08ZM379.378 412.024C379.378 409.256 379.842 407.096 380.77 405.544C381.714 403.976 383.33 403.192 385.618 403.192C387.906 403.192 389.514 403.976 390.442 405.544C391.386 407.096 391.858 409.256 391.858 412.024C391.858 414.824 391.386 417.016 390.442 418.6C389.514 420.168 387.906 420.952 385.618 420.952C383.33 420.952 381.714 420.168 380.77 418.6C379.842 417.016 379.378 414.824 379.378 412.024ZM389.17 412.024C389.17 410.728 389.082 409.632 388.906 408.736C388.746 407.84 388.41 407.112 387.898 406.552C387.386 405.976 386.626 405.688 385.618 405.688C384.61 405.688 383.85 405.976 383.338 406.552C382.826 407.112 382.482 407.84 382.306 408.736C382.146 409.632 382.066 410.728 382.066 412.024C382.066 413.368 382.146 414.496 382.306 415.408C382.466 416.32 382.802 417.056 383.314 417.616C383.842 418.176 384.61 418.456 385.618 418.456C386.626 418.456 387.386 418.176 387.898 417.616C388.426 417.056 388.77 416.32 388.93 415.408C389.09 414.496 389.17 413.368 389.17 412.024Z" fill="#404040"/>
<path d="M446.572 407.824C446.668 406.336 447.236 405.176 448.276 404.344C449.332 403.512 450.676 403.096 452.308 403.096C453.428 403.096 454.396 403.296 455.212 403.696C456.028 404.096 456.644 404.64 457.06 405.328C457.476 406.016 457.684 406.792 457.684 407.656C457.684 408.648 457.42 409.496 456.892 410.2C456.364 410.904 455.732 411.376 454.996 411.616V411.712C455.94 412 456.676 412.528 457.204 413.296C457.732 414.048 457.996 415.016 457.996 416.2C457.996 417.144 457.78 417.984 457.348 418.72C456.916 419.456 456.276 420.04 455.428 420.472C454.58 420.888 453.564 421.096 452.38 421.096C450.652 421.096 449.228 420.656 448.108 419.776C447.004 418.88 446.412 417.6 446.332 415.936H448.972C449.036 416.784 449.364 417.48 449.956 418.024C450.548 418.552 451.348 418.816 452.356 418.816C453.332 418.816 454.084 418.552 454.612 418.024C455.14 417.48 455.404 416.784 455.404 415.936C455.404 414.816 455.044 414.024 454.324 413.56C453.62 413.08 452.532 412.84 451.06 412.84H450.436V410.584H451.084C452.38 410.568 453.364 410.352 454.036 409.936C454.724 409.52 455.068 408.864 455.068 407.968C455.068 407.2 454.82 406.592 454.324 406.144C453.828 405.68 453.124 405.448 452.212 405.448C451.316 405.448 450.62 405.68 450.124 406.144C449.628 406.592 449.332 407.152 449.236 407.824H446.572ZM460.51 406V403.504H465.502V421H462.742V406H460.51Z" fill="#404040"/>
<defs>
<filter id="filter0_d_462_2424" x="0" y="0" width="615" height="461" filterUnits="userSpaceOnUse" color-interpolation-filters="sRGB">
<feFlood flood-opacity="0" result="BackgroundImageFix"/>
<feColorMatrix in="SourceAlpha" type="matrix" values="0 0 0 0 0 0 0 0 0 0 0 0 0 0 0 0 0 0 127 0" result="hardAlpha"/>
<feOffset dx="1" dy="1"/>
<feGaussianBlur stdDeviation="2"/>
<feComposite in2="hardAlpha" operator="out"/>
<feColorMatrix type="matrix" values="0 0 0 0 0 0 0 0 0 0 0 0 0 0 0 0 0 0 0.25 0"/>
<feBlend mode="normal" in2="BackgroundImageFix" result="effect1_dropShadow_462_2424"/>
<feBlend mode="normal" in="SourceGraphic" in2="effect1_dropShadow_462_2424" result="shape"/>
</filter>
</defs>
</svg>
