<svg width="200" height="200" viewBox="0 0 200 200" fill="none" xmlns="http://www.w3.org/2000/svg">
<g id="Group 1000002548">
<rect id="Rectangle 24110" x="1" y="1" width="198" height="198" fill="white" stroke="black" stroke-width="2"/>
<g id="Black and White Collection 6">
<path id="Vector" d="M163.63 36H36.5V163.13H163.63V36Z" fill="white"/>
<g id="Group" opacity="0.1">
<path id="Vector_2" opacity="0.1" d="M163.62 160.12V163.12H160.62" stroke="#20263C" stroke-miterlimit="10"/>
<path id="Vector_3" opacity="0.1" d="M154.85 163.12H42.3799" stroke="#20263C" stroke-miterlimit="10" stroke-dasharray="5.77 5.77"/>
<path id="Vector_4" opacity="0.1" d="M39.5 163.12H36.5V160.12" stroke="#20263C" stroke-miterlimit="10"/>
<path id="Vector_5" opacity="0.1" d="M36.5 154.36V41.8799" stroke="#20263C" stroke-miterlimit="10" stroke-dasharray="5.77 5.77"/>
<path id="Vector_6" opacity="0.1" d="M36.5 39V36H39.5" stroke="#20263C" stroke-miterlimit="10"/>
<path id="Vector_7" opacity="0.1" d="M45.27 36H157.74" stroke="#20263C" stroke-miterlimit="10" stroke-dasharray="5.77 5.77"/>
<path id="Vector_8" opacity="0.1" d="M160.62 36H163.62V39" stroke="#20263C" stroke-miterlimit="10"/>
<path id="Vector_9" opacity="0.1" d="M163.62 44.77V157.24" stroke="#20263C" stroke-miterlimit="10" stroke-dasharray="5.77 5.77"/>
</g>
<path id="Vector_10" d="M36 160.12V163.6H36.98V160.12H36Z" fill="#20263C"/>
<path id="Vector_11" d="M36 160.12V163.6H36.98V160.12H36Z" fill="#20263C"/>
<path id="Vector_12" d="M101.61 89.9602C99.0879 89.9546 96.6551 90.8928 94.7899 92.5902C95.0356 92.866 95.174 93.2209 95.1799 93.5902C95.1799 93.7959 95.1392 93.9996 95.0602 94.1895C94.9812 94.3794 94.8654 94.5518 94.7194 94.6968C94.5735 94.8418 94.4004 94.9565 94.2099 95.0343C94.0195 95.1121 93.8156 95.1515 93.6099 95.1502C93.3435 95.1504 93.0817 95.0815 92.8499 94.9502C91.7146 96.8783 91.2482 99.1275 91.5233 101.348C91.7984 103.568 92.7995 105.636 94.3709 107.229C95.9424 108.821 97.9961 109.85 100.213 110.155C102.429 110.46 104.685 110.024 106.628 108.915C108.571 107.806 110.093 106.086 110.958 104.022C111.823 101.959 111.981 99.667 111.409 97.504C110.836 95.3409 109.565 93.4276 107.793 92.0615C106.021 90.6954 103.847 89.9532 101.61 89.9502V89.9602ZM101.61 103.38C100.963 103.38 100.33 103.188 99.7921 102.828C99.2542 102.469 98.8351 101.957 98.5879 101.359C98.3407 100.761 98.2765 100.103 98.4035 99.4686C98.5305 98.834 98.8429 98.2513 99.3012 97.7944C99.7595 97.3375 100.343 97.0269 100.978 96.9018C101.613 96.7768 102.271 96.843 102.868 97.092C103.466 97.341 103.976 97.7617 104.334 98.3008C104.692 98.8398 104.882 99.473 104.88 100.12C104.88 100.549 104.795 100.974 104.631 101.37C104.466 101.766 104.225 102.126 103.922 102.429C103.618 102.732 103.257 102.972 102.861 103.135C102.464 103.298 102.039 103.381 101.61 103.38Z" fill="#000745"/>
<path id="Vector_13" d="M126.69 109.59L105.39 72.7C103.31 69.1 99.9099 69.1 97.8399 72.7L76.4999 109.59C74.4199 113.18 76.1199 116.13 80.2799 116.13H122.91C127.07 116.16 128.77 113.21 126.69 109.59ZM101.61 111.24C99.6211 111.239 97.6686 110.707 95.9553 109.696C94.2421 108.686 92.8304 107.236 91.8671 105.496C90.9037 103.756 90.4237 101.79 90.477 99.8017C90.5303 97.8135 91.1148 95.8759 92.1699 94.19C92.0891 94.0039 92.0482 93.8029 92.0499 93.6C92.0499 93.1863 92.2143 92.7895 92.5069 92.4969C92.7994 92.2043 93.1962 92.04 93.6099 92.04C93.703 92.0297 93.7969 92.0297 93.8899 92.04C95.2039 90.7766 96.8077 89.8549 98.5609 89.3558C100.314 88.8566 102.163 88.7953 103.945 89.1772C105.728 89.5591 107.389 90.3726 108.784 91.5462C110.178 92.7198 111.264 94.2177 111.945 95.9086C112.626 97.5994 112.881 99.4315 112.689 101.244C112.497 103.057 111.863 104.795 110.843 106.305C109.823 107.816 108.447 109.053 106.838 109.908C105.228 110.763 103.433 111.21 101.61 111.21V111.24Z" fill="#000745"/>
</g>
</g>
</svg>
