<svg width="200" height="200" viewBox="0 0 200 200" fill="none" xmlns="http://www.w3.org/2000/svg">
<g id="Group 1000002545">
<rect id="Rectangle 24110" x="1" y="1" width="198" height="198" fill="white" stroke="black" stroke-width="2"/>
<g id="Black and White Collection 2">
<path id="Vector" d="M163.13 36H36V163.13H163.13V36Z" fill="white"/>
<g id="Group" opacity="0.1">
<path id="Vector_2" opacity="0.1" d="M163.12 160.12V163.12H160.12" stroke="#FFC700" stroke-miterlimit="10"/>
<path id="Vector_3" opacity="0.1" d="M154.35 163.12H41.8799" stroke="#FFC700" stroke-miterlimit="10" stroke-dasharray="5.77 5.77"/>
<path id="Vector_4" opacity="0.1" d="M39 163.12H36V160.12" stroke="#FFC700" stroke-miterlimit="10"/>
<path id="Vector_5" opacity="0.1" d="M36 154.35V41.8799" stroke="#FFC700" stroke-miterlimit="10" stroke-dasharray="5.77 5.77"/>
<path id="Vector_6" opacity="0.1" d="M36 39V36H39" stroke="#FFC700" stroke-miterlimit="10"/>
<path id="Vector_7" opacity="0.1" d="M44.7598 36H157.24" stroke="#FFC700" stroke-miterlimit="10" stroke-dasharray="5.77 5.77"/>
<path id="Vector_8" opacity="0.1" d="M160.12 36H163.12V39" stroke="#FFC700" stroke-miterlimit="10"/>
<path id="Vector_9" opacity="0.1" d="M163.12 44.7598V157.24" stroke="#FFC700" stroke-miterlimit="10" stroke-dasharray="5.77 5.77"/>
</g>
<path id="Vector_10" d="M99 116.338C97.0535 116.347 95.1327 115.875 93.3952 114.962C91.6578 114.049 90.153 112.72 89.0046 111.085L81 115.868C81.3046 116.234 81.6652 116.544 82.0673 116.786L96.3113 125.327C97.1438 125.769 98.0652 126 99 126C99.9348 126 100.856 125.769 101.689 125.327L115.933 116.786C116.335 116.544 116.695 116.234 117 115.868L109.016 111C107.874 112.654 106.37 114.001 104.628 114.929C102.887 115.857 100.957 116.34 99 116.338Z" fill="#000745"/>
<path id="Vector_11" d="M86.4673 103.449C86.4746 100.412 87.6548 97.485 89.7823 95.2261C91.9098 92.9672 94.8355 91.5353 98 91.2041V82C97.5199 82.0952 97.058 82.2604 96.6306 82.4898L81.7815 90.6531C80.9744 91.1681 80.3033 91.8543 79.8208 92.6581C79.3382 93.4618 79.0573 94.3611 79 95.2857V111.612C79.0066 112.083 79.0858 112.551 79.2353 113L87.58 108.408C86.8503 106.847 86.4713 105.158 86.4673 103.449Z" fill="#000745"/>
<path id="Vector_12" d="M116.365 90.6474L102.297 82.4895C101.893 82.2602 101.455 82.0951 101 82V91.1776C102.911 91.3955 104.745 92.0617 106.353 93.1229C107.962 94.184 109.3 95.6103 110.26 97.2869C111.221 98.9635 111.776 100.844 111.882 102.776C111.989 104.708 111.642 106.638 110.872 108.411L118.777 113C118.919 112.551 118.994 112.084 119 111.613V95.2974C118.949 94.3699 118.684 93.4671 118.227 92.6601C117.769 91.8531 117.132 91.1641 116.365 90.6474Z" fill="#000745"/>
<path id="Vector_13" d="M126.612 82.4711L103.388 69.0403C102.027 68.3562 100.524 68 99 68C97.4762 68 95.9736 68.3562 94.6116 69.0403L71.3884 82.4711C70.1137 83.3027 69.0524 84.4228 68.29 85.7409C67.5277 87.059 67.0858 88.5381 67 90.0587V116.92C67.0842 118.444 67.5253 119.927 68.2876 121.248C69.0499 122.57 70.1121 123.694 71.3884 124.529L94.6116 137.96C95.9736 138.644 97.4762 139 99 139C100.524 139 102.027 138.644 103.388 137.96L126.612 124.529C127.888 123.694 128.95 122.57 129.712 121.248C130.475 119.927 130.916 118.444 131 116.92V90.0587C130.914 88.5381 130.472 87.059 129.71 85.7409C128.948 84.4228 127.886 83.3027 126.612 82.4711ZM123.63 113.83C123.562 115.001 123.22 116.139 122.633 117.154C122.046 118.169 121.23 119.032 120.249 119.674L102.359 130.015C101.314 130.543 100.16 130.818 98.9895 130.818C97.8188 130.818 96.6644 130.543 95.6195 130.015L77.7507 119.674C76.7702 119.032 75.9537 118.169 75.3667 117.154C74.7796 116.139 74.4383 115.001 74.3701 113.83V93.1695C74.4383 91.9988 74.7796 90.8605 75.3667 89.8458C75.9537 88.831 76.7702 87.9681 77.7507 87.3263L95.5984 76.9853C96.6434 76.457 97.7977 76.1817 98.9685 76.1817C100.139 76.1817 101.294 76.457 102.339 76.9853L120.228 87.3263C121.213 87.9658 122.033 88.8277 122.624 89.8426C123.215 90.8574 123.559 91.997 123.63 93.1695V113.83Z" fill="#000745"/>
<path id="Vector_14" d="M90 103.5C90 105.181 90.5278 106.824 91.5167 108.222C92.5056 109.62 93.9113 110.71 95.5559 111.353C97.2004 111.996 99.01 112.165 100.756 111.837C102.502 111.509 104.105 110.699 105.364 109.51C106.623 108.322 107.48 106.807 107.827 105.158C108.174 103.509 107.996 101.8 107.315 100.247C106.634 98.694 105.48 97.3665 104 96.4325C102.52 95.4985 100.78 95 99 95C96.6131 95 94.3239 95.8955 92.6361 97.4896C90.9482 99.0837 90 101.246 90 103.5Z" fill="#000745"/>
</g>
</g>
</svg>
