<svg width="200" height="200" viewBox="0 0 200 200" fill="none" xmlns="http://www.w3.org/2000/svg">
<g id="Group 1000002549">
<rect id="Rectangle 24110" x="1" y="1" width="198" height="198" fill="white" stroke="black" stroke-width="2"/>
<g id="Black and White Collection 19">
<path id="Vector" d="M163.13 36H36V163.13H163.13V36Z" fill="white"/>
<g id="Group" opacity="0.1">
<path id="Vector_2" opacity="0.1" d="M163.12 160.12V163.12H160.12" stroke="#000745" stroke-miterlimit="10"/>
<path id="Vector_3" opacity="0.1" d="M154.35 163.12H41.8799" stroke="#000745" stroke-miterlimit="10" stroke-dasharray="5.77 5.77"/>
<path id="Vector_4" opacity="0.1" d="M39 163.12H36V160.12" stroke="#000745" stroke-miterlimit="10"/>
<path id="Vector_5" opacity="0.1" d="M36 154.35V41.8799" stroke="#000745" stroke-miterlimit="10" stroke-dasharray="5.77 5.77"/>
<path id="Vector_6" opacity="0.1" d="M36 39V36H39" stroke="#000745" stroke-miterlimit="10"/>
<path id="Vector_7" opacity="0.1" d="M44.77 36H157.24" stroke="#000745" stroke-miterlimit="10" stroke-dasharray="5.77 5.77"/>
<path id="Vector_8" opacity="0.1" d="M160.12 36H163.12V39" stroke="#000745" stroke-miterlimit="10"/>
<path id="Vector_9" opacity="0.1" d="M163.12 44.7598V157.24" stroke="#000745" stroke-miterlimit="10" stroke-dasharray="5.77 5.77"/>
</g>
<path id="Vector_10" d="M94.6899 99.5899C94.6899 100.567 94.9799 101.523 95.5232 102.336C96.0664 103.148 96.8386 103.781 97.7418 104.155C98.6451 104.528 99.6388 104.626 100.597 104.434C101.556 104.243 102.436 103.771 103.127 103.08C103.817 102.388 104.287 101.507 104.476 100.548C104.666 99.5886 104.567 98.595 104.191 97.6925C103.816 96.79 103.181 96.0192 102.367 95.4776C101.554 94.936 100.597 94.648 99.6199 94.6499C98.3115 94.6526 97.0576 95.1742 96.1333 96.1004C95.209 97.0265 94.6899 98.2815 94.6899 99.5899Z" fill="#000745"/>
<path id="Vector_11" d="M99.6197 115.03C98.6427 115.03 97.6876 115.319 96.8752 115.862C96.0628 116.405 95.4297 117.177 95.0558 118.079C94.6819 118.982 94.584 119.975 94.7747 120.934C94.9653 121.892 95.4358 122.772 96.1266 123.463C96.8175 124.154 97.6977 124.624 98.656 124.815C99.6143 125.005 100.607 124.908 101.51 124.534C102.413 124.16 103.184 123.527 103.727 122.714C104.27 121.902 104.56 120.947 104.56 119.97C104.56 118.66 104.039 117.403 103.113 116.477C102.186 115.55 100.93 115.03 99.6197 115.03Z" fill="#000745"/>
<path id="Vector_12" d="M114.78 94.6499C113.803 94.6499 112.848 94.9396 112.035 95.4825C111.223 96.0253 110.59 96.7968 110.216 97.6995C109.842 98.6021 109.744 99.5954 109.935 100.554C110.125 101.512 110.596 102.392 111.287 103.083C111.978 103.774 112.858 104.244 113.816 104.435C114.774 104.626 115.768 104.528 116.67 104.154C117.573 103.78 118.344 103.147 118.887 102.334C119.43 101.522 119.72 100.567 119.72 99.5899C119.72 98.2798 119.199 97.0232 118.273 96.0968C117.346 95.1704 116.09 94.6499 114.78 94.6499Z" fill="#000745"/>
<path id="Vector_13" d="M99.6199 83.88C100.597 83.882 101.554 83.5939 102.367 83.0523C103.181 82.5107 103.816 81.7399 104.191 80.8374C104.567 79.9349 104.666 78.9413 104.476 77.9824C104.287 77.0235 103.817 76.1423 103.127 75.4504C102.436 74.7586 101.556 74.2871 100.597 74.0957C99.6388 73.9042 98.6451 74.0015 97.7418 74.3751C96.8386 74.7487 96.0664 75.3818 95.5232 76.1944C94.9799 77.007 94.6899 77.9625 94.6899 78.94C94.6899 80.2484 95.209 81.5034 96.1333 82.4296C97.0576 83.3557 98.3115 83.8773 99.6199 83.88Z" fill="#000745"/>
<path id="Vector_14" d="M89.2998 99.0201C89.2998 98.043 89.0101 97.0879 88.4673 96.2755C87.9245 95.4632 87.153 94.83 86.2503 94.4561C85.3476 94.0822 84.3544 93.9844 83.3961 94.175C82.4378 94.3656 81.5576 94.8361 80.8667 95.527C80.1759 96.2178 79.7054 97.098 79.5148 98.0563C79.3242 99.0146 79.422 100.008 79.7959 100.911C80.1698 101.813 80.803 102.585 81.6153 103.128C82.4277 103.67 83.3828 103.96 84.3598 103.96C85.67 103.96 86.9265 103.44 87.853 102.513C88.7794 101.587 89.2998 100.33 89.2998 99.0201Z" fill="#000745"/>
<path id="Vector_15" d="M110.86 106.32C109.093 104.542 108.101 102.137 108.101 99.6299C108.101 97.123 109.093 94.7179 110.86 92.9399C111.549 92.2482 112.017 91.368 112.206 90.4103C112.395 89.4525 112.296 88.4603 111.922 87.5587C111.548 86.6572 110.914 85.8868 110.102 85.3449C109.29 84.8029 108.336 84.5137 107.36 84.5137C106.384 84.5137 105.429 84.8029 104.617 85.3449C103.805 85.8868 103.172 86.6572 102.798 87.5587C102.423 88.4603 102.324 89.4525 102.513 90.4103C102.702 91.368 103.171 92.2482 103.86 92.9399C104.748 93.8194 105.452 94.8662 105.933 96.0196C106.414 97.173 106.662 98.4103 106.662 99.6599C106.662 100.909 106.414 102.147 105.933 103.3C105.452 104.454 104.748 105.5 103.86 106.38C103.171 107.071 102.702 107.952 102.513 108.909C102.324 109.867 102.423 110.859 102.798 111.761C103.172 112.663 103.805 113.433 104.617 113.975C105.429 114.517 106.384 114.806 107.36 114.806C108.336 114.806 109.29 114.517 110.102 113.975C110.914 113.433 111.548 112.663 111.922 111.761C112.296 110.859 112.395 109.867 112.206 108.909C112.017 107.952 111.549 107.071 110.86 106.38V106.32Z" fill="#000745"/>
<path id="Vector_16" d="M96.6402 109.2C96.6349 107.903 96.1257 106.659 95.2202 105.73C93.453 103.952 92.4611 101.547 92.4611 99.04C92.4611 96.5331 93.453 94.1281 95.2202 92.35C95.9092 91.6584 96.3777 90.7781 96.5667 89.8204C96.7558 88.8627 96.6568 87.8704 96.2823 86.9689C95.9079 86.0673 95.2747 85.297 94.4627 84.755C93.6508 84.2131 92.6964 83.9238 91.7202 83.9238C90.744 83.9238 89.7897 84.2131 88.9777 84.755C88.1658 85.297 87.5326 86.0673 87.1581 86.9689C86.7837 87.8704 86.6847 88.8627 86.8737 89.8204C87.0628 90.7781 87.5313 91.6584 88.2202 92.35C89.1064 93.2294 89.8098 94.2755 90.2898 95.428C90.7698 96.5805 91.0169 97.8166 91.0169 99.065C91.0169 100.314 90.7698 101.55 90.2898 102.702C89.8098 103.855 89.1064 104.901 88.2202 105.78C87.6515 106.358 87.2336 107.066 87.0035 107.844C86.7734 108.621 86.738 109.443 86.9006 110.237C87.0632 111.031 87.4187 111.773 87.9358 112.397C88.4529 113.022 89.1156 113.509 89.8656 113.817C90.6156 114.124 91.4297 114.243 92.2362 114.161C93.0427 114.08 93.8168 113.801 94.4902 113.35C95.1636 112.899 95.7156 112.289 96.0975 111.574C96.4795 110.859 96.6796 110.061 96.6802 109.25L96.6402 109.2Z" fill="#000745"/>
</g>
</g>
</svg>
