<svg width="608" height="1666" viewBox="0 0 608 1666" fill="none" xmlns="http://www.w3.org/2000/svg">
<rect width="608" height="1666" fill="#737373"/>
<g clip-path="url(#clip0_1_2674)">
<rect width="1920" height="10912" transform="translate(-1312 -2196)" fill="white"/>
<rect width="608" height="1666" fill="#FFC700"/>
<path d="M311.586 114.328V74.904C311.586 69.016 311.074 61.976 303.65 61.976C296.482 61.976 295.586 69.016 295.586 74.904V114.328C295.586 119.832 296.482 128.024 303.778 128.024C311.074 128.024 311.586 119.832 311.586 114.328ZM334.114 73.368V112.408C334.114 134.04 326.562 145.304 303.778 145.304C280.994 145.304 273.058 134.04 273.058 112.408V73.368C273.058 54.936 284.066 44.696 303.778 44.696C323.49 44.696 334.114 54.936 334.114 73.368ZM328.972 303H310.028V294.168H309.772C307.852 299.672 301.964 305.304 295.564 305.304C283.788 305.304 277.388 299.928 277.388 290.2V231.32H297.74V282.648C297.996 285.976 298.892 288.92 302.732 288.664C306.316 288.536 308.62 286.36 308.62 282.648V231.32H328.972V303ZM287.564 391.32H306.508V402.2H306.764C309.068 394.52 314.06 389.272 322.508 389.272V412.312C320.46 411.928 318.412 411.8 316.364 411.8C310.604 411.8 308.3 412.952 307.916 418.84V463H287.564V391.32ZM329.847 783H279.799V687H302.327V763.8H329.847V783ZM296.716 897.048H310.796V890.008C310.796 887.448 309.132 882.712 303.884 882.712C298.124 882.712 296.716 887.32 296.716 892.312V897.048ZM331.148 910.488H296.716V923.032C296.716 927 298.508 930.328 302.988 930.584C310.54 930.968 309.772 924.184 310.156 918.168H330.38C331.404 936.6 321.42 945.048 303.756 945.304C289.164 945.432 276.364 939.416 276.364 923.032V893.848C276.364 875.416 288.012 869.4 303.756 869.272C317.964 869.144 331.148 874.52 331.148 890.008V910.488ZM296.972 1056.54V1076.89C296.972 1080.86 298.252 1084.57 302.988 1084.57C308.492 1084.57 309.132 1079.58 309.132 1075.22V1055.38C309.132 1050.52 307.98 1045.91 302.476 1045.91C297.228 1045.91 296.844 1052.82 296.972 1056.54ZM276.108 1106.97H296.46C296.46 1111.96 297.228 1114.14 303.116 1113.75C307.34 1113.37 309.132 1112.47 309.26 1107.86V1093.4H309.004C304.908 1098.14 300.044 1101.21 294.54 1101.21C281.74 1101.21 276.62 1089.69 276.62 1078.68V1053.85C276.62 1042.58 280.716 1029.27 294.156 1029.27C301.196 1029.53 306.828 1032.86 310.284 1040.02H310.54V1031.32H329.484V1104.41C329.484 1121.18 317.452 1127.19 302.22 1127.19C286.86 1127.19 276.62 1123.48 276.108 1106.97ZM310.028 1239.45V1228.18C305.932 1230.36 302.348 1231.51 299.788 1233.43C297.228 1235.22 295.052 1237.78 295.052 1242.65C295.052 1247.13 297.74 1250.33 302.604 1250.33C308.62 1250.33 309.9 1244.06 310.028 1239.45ZM312.204 1263L310.796 1256.6C305.676 1262.23 301.324 1265.3 293.26 1265.3C281.74 1265.3 274.572 1257.5 274.572 1246.1C274.572 1229.85 283.404 1224.73 292.364 1221.78C301.196 1218.84 310.028 1217.94 310.028 1210.26C310.028 1206.3 307.724 1202.84 303.628 1202.84C296.204 1202.84 296.204 1207.96 295.82 1213.98H275.468C274.572 1196.06 286.604 1189.27 302.988 1189.27C323.084 1189.27 330.38 1195.42 330.38 1211.16V1255.06C330.38 1257.75 331.148 1260.44 332.044 1263H312.204ZM329.868 1377.94H310.668L310.54 1376.66C310.156 1373.98 310.284 1371.16 309.772 1368.47C308.876 1365.53 307.34 1363.99 304.268 1363.99C299.02 1363.99 298.124 1368.09 298.124 1372.7V1402.26C298.124 1406.74 299.404 1410.58 304.652 1410.58C312.204 1410.58 310.924 1399.32 310.924 1393.94H330.636C330.636 1398.17 330.124 1407.13 328.972 1410.97C326.284 1419.93 318.604 1424.02 309.772 1424.92C307.852 1425.05 306.06 1425.3 302.988 1425.3C288.396 1425.3 277.772 1419.42 277.772 1403.03V1373.85C277.772 1355.42 287.244 1349.27 302.988 1349.27C323.084 1349.53 331.02 1358.23 329.868 1377.94ZM296.311 1511.32L303.223 1557.66H303.479L310.519 1511.32H330.487L317.559 1572.63C312.439 1592.09 312.567 1607.19 290.295 1607.19C286.711 1607.19 284.279 1606.55 282.231 1606.55V1591.45C283.51 1591.58 284.919 1591.7 286.199 1591.96C288.375 1592.34 292.343 1591.19 292.343 1588.38C292.343 1585.05 290.807 1579.54 290.039 1576.22L275.831 1511.32H296.311Z" fill="white"/>
</g>
<defs>
<clipPath id="clip0_1_2674">
<rect width="1920" height="10912" fill="white" transform="translate(-1312 -2196)"/>
</clipPath>
</defs>
</svg>
