<svg width="200" height="200" viewBox="0 0 200 200" fill="none" xmlns="http://www.w3.org/2000/svg">
<g id="Group 1000002547">
<rect id="Rectangle 24110" x="1" y="1" width="198" height="198" fill="white" stroke="black" stroke-width="2"/>
<g id="Black and White Collection 7">
<path id="Vector" d="M163.13 36H36V163.13H163.13V36Z" fill="white"/>
<g id="Group" opacity="0.1">
<path id="Vector_2" opacity="0.1" d="M163.12 160.12V163.12H160.12" stroke="#20263C" stroke-miterlimit="10"/>
<path id="Vector_3" opacity="0.1" d="M154.35 163.12H41.8799" stroke="#20263C" stroke-miterlimit="10" stroke-dasharray="5.77 5.77"/>
<path id="Vector_4" opacity="0.1" d="M39 163.12H36V160.12" stroke="#20263C" stroke-miterlimit="10"/>
<path id="Vector_5" opacity="0.1" d="M36 154.36V41.8799" stroke="#20263C" stroke-miterlimit="10" stroke-dasharray="5.77 5.77"/>
<path id="Vector_6" opacity="0.1" d="M36 39V36H39" stroke="#20263C" stroke-miterlimit="10"/>
<path id="Vector_7" opacity="0.1" d="M44.7598 36H157.24" stroke="#20263C" stroke-miterlimit="10" stroke-dasharray="5.77 5.77"/>
<path id="Vector_8" opacity="0.1" d="M160.12 36H163.12V39" stroke="#20263C" stroke-miterlimit="10"/>
<path id="Vector_9" opacity="0.1" d="M163.12 44.77V157.24" stroke="#20263C" stroke-miterlimit="10" stroke-dasharray="5.77 5.77"/>
</g>
<path id="Vector_10" d="M117.671 79.0528C113.755 75.1365 108.766 72.4693 103.334 71.3885C97.9028 70.3077 92.2727 70.8619 87.1561 72.981C82.0395 75.1001 77.6662 78.689 74.5893 83.2936C71.5124 87.8983 69.8701 93.312 69.8701 98.8501C69.8701 104.388 71.5124 109.802 74.5893 114.407C77.6662 119.011 82.0395 122.6 87.1561 124.719C92.2727 126.838 97.9028 127.392 103.334 126.312C108.766 125.231 113.755 122.564 117.671 118.647C122.921 113.396 125.87 106.275 125.87 98.8501C125.87 91.4249 122.921 84.3037 117.671 79.0528ZM77.1726 89.3746C78.5835 86.2452 80.6741 83.4695 83.2925 81.2495C85.9108 79.0295 88.991 77.4209 92.309 76.5408C95.6271 75.6607 99.0996 75.5312 102.474 76.1617C105.848 76.7922 109.04 78.1668 111.816 80.1856C104.944 79.5365 96.3399 83.0492 89.3654 90.011C86.7331 92.639 84.503 95.6411 82.7472 98.9201C80.3591 96.0789 78.4738 92.8506 77.1726 89.3746ZM92.6108 121.855C87.2964 120.431 82.6638 117.159 79.545 112.626C76.4262 108.094 75.0255 102.598 75.5945 97.1255C78.4835 103.4 85.7763 109.102 95.3472 111.647C98.9202 112.617 102.618 113.046 106.318 112.92C105.061 116.398 103.223 119.639 100.884 122.504C98.1079 122.784 95.3043 122.556 92.6108 121.829V121.855ZM110.035 95.2419C109.091 91.6528 107.624 88.2221 105.682 85.0601C109.321 84.4123 113.043 84.3865 116.691 84.9837C118.324 87.244 119.527 89.785 120.242 92.4801C121.668 97.7953 121.152 103.445 118.787 108.414C116.421 113.383 112.361 117.345 107.336 119.589C111.307 113.976 112.58 104.775 110.035 95.2419Z" fill="#000745"/>
</g>
</g>
</svg>
