<svg width="200" height="200" viewBox="0 0 200 200" fill="none" xmlns="http://www.w3.org/2000/svg">
<g id="Group 1000002546">
<rect id="Rectangle 24110" x="1" y="1" width="198" height="198" fill="white" stroke="black" stroke-width="2"/>
<g id="Black and White Collection 5">
<path id="Vector" d="M163.13 36H36V163.13H163.13V36Z" fill="white"/>
<g id="Group" opacity="0.1">
<path id="Vector_2" opacity="0.1" d="M163.12 160.12V163.12H160.12" stroke="#20263C" stroke-miterlimit="10"/>
<path id="Vector_3" opacity="0.1" d="M154.36 163.12H41.8799" stroke="#20263C" stroke-miterlimit="10" stroke-dasharray="5.77 5.77"/>
<path id="Vector_4" opacity="0.1" d="M39 163.12H36V160.12" stroke="#20263C" stroke-miterlimit="10"/>
<path id="Vector_5" opacity="0.1" d="M36 154.35V41.8799" stroke="#20263C" stroke-miterlimit="10" stroke-dasharray="5.77 5.77"/>
<path id="Vector_6" opacity="0.1" d="M36 39V36H39" stroke="#20263C" stroke-miterlimit="10"/>
<path id="Vector_7" opacity="0.1" d="M44.77 36H157.24" stroke="#20263C" stroke-miterlimit="10" stroke-dasharray="5.77 5.77"/>
<path id="Vector_8" opacity="0.1" d="M160.12 36H163.12V39" stroke="#20263C" stroke-miterlimit="10"/>
<path id="Vector_9" opacity="0.1" d="M163.12 44.7598V157.24" stroke="#20263C" stroke-miterlimit="10" stroke-dasharray="5.77 5.77"/>
</g>
<path id="Vector_10" d="M120.56 107.02C119.545 105.896 118.684 104.642 118 103.29C116.919 101.172 115.426 99.2914 113.607 97.7595C111.788 96.2276 109.681 95.0751 107.41 94.3701C105.424 93.7561 103.346 93.4955 101.27 93.6001C102.781 93.5138 104.269 94.0016 105.435 94.966C106.602 95.9303 107.361 97.2998 107.56 98.8001C108.106 102.042 109.543 105.068 111.71 107.54C113.877 110.012 116.688 111.833 119.83 112.8C123.423 113.904 127.273 113.845 130.83 112.63C126.868 111.984 123.245 110.005 120.56 107.02Z" fill="#000745"/>
<path id="Vector_11" d="M94.9197 93.7999C95.3814 95.8283 96.1936 97.7606 97.3197 99.5099C96.4974 98.2397 96.1809 96.7075 96.4327 95.2155C96.6844 93.7234 97.4862 92.3799 98.6797 91.4499C101.215 89.3531 103.118 86.5938 104.177 83.4793C105.236 80.3648 105.41 77.0174 104.68 73.8099C103.846 70.1406 101.867 66.8314 99.0297 64.3599C100.442 68.136 100.523 72.2813 99.2597 76.1099C98.7759 77.5553 98.1034 78.9305 97.2597 80.1999C95.9643 82.194 95.0818 84.4277 94.6644 86.7688C94.247 89.1099 94.3032 91.5109 94.8297 93.8299L94.9197 93.7999Z" fill="#000745"/>
<path id="Vector_12" d="M104.47 99.9199C103.789 101.273 102.623 102.318 101.204 102.847C99.7854 103.375 98.2192 103.348 96.8197 102.77C93.7356 101.614 90.3908 101.339 87.1592 101.974C83.9275 102.61 80.9363 104.132 78.5198 106.37C75.7645 108.933 73.8945 112.305 73.1797 116C75.7436 112.888 79.2923 110.743 83.2397 109.92C84.7227 109.616 86.2377 109.499 87.7497 109.57C90.1214 109.693 92.4936 109.339 94.7264 108.53C96.9591 107.721 99.0072 106.473 100.75 104.86C102.275 103.444 103.54 101.772 104.49 99.9199H104.47Z" fill="#000745"/>
</g>
</g>
</svg>
